Coordinates
version=1
nRows=14
nColumns=33
inDegrees=yes

Units are S.I. units (second, meters, Newtons, ...)
Angles are in degrees.

endheader
time	ground_thorax_rot_x	ground_thorax_rot_y	ground_thorax_rot_z	ground_thorax_tx	ground_thorax_ty	ground_thorax_tz	clav_prot_r	clav_elev_r	scapula_abduction_r	scapula_elevation_r	scapula_upward_rot_r	scapula_winging_r	shoulder_elv_r	plane_of_elev_r	axial_rot_r	elbow_flexion_r	pro_sup_r	wrist_flex_r	wrist_dev_r	clav_prot_l	clav_elev_l	scapula_abduction_l	scapula_elevation_l	scapula_upward_rot_l	scapula_winging_l	shoulder_elv_l	plane_of_elev_l	axial_rot_l	elbow_flexion_l	pro_sup_l	wrist_flex_l	wrist_dev_l
      1.58000000	    -41.03310928	     -3.94448312	      6.15533531	   -147.95352568	    815.25801885	      7.03043200	      7.29514746	    -45.00000000	     45.00000000	    -45.00000000	    -19.11187947	  -2256.91928778	  -1364.63821558	     33.24683926	     42.34205133	   1091.58205353	     23.51663606	     18.93405894	      7.92261096	     17.57164826	     39.12195851	    -44.40382644	    -45.00000000	    -45.00000000	    800.66290292	  -2426.35635848	     19.60097189	   -179.99999979	    345.66595995	   -287.30662287	      6.21138298	    -10.98871792
      1.59000000	    -41.01776196	     -3.92254263	      6.30518146	   -154.07973773	    816.54043824	      6.75394986	      7.52798056	    -45.00000000	     45.00000000	    -45.00000000	    -20.16860444	  -2257.35931149	  -1364.54063274	     33.22325095	     43.10979411	   1091.70459204	     24.33332415	     18.89585090	      7.65791019	     17.34551002	     38.91459262	    -43.67931127	    -45.00000000	    -45.00000000	    800.80340852	  -2426.46645500	     19.51288327	   -179.99999979	    345.47489364	   -288.89282219	      6.09769441	    -10.72600706
      1.60000000	    -40.97725678	     -3.96838911	      6.48325264	   -160.16269856	    817.75281346	      6.46572293	      7.91854917	    -45.00000000	     45.00000000	    -45.00000000	    -21.53024757	  -2257.71960312	  -1364.38605975	     33.25477398	     43.77828634	   1091.91197381	     25.45687418	     18.82230636	      7.29515511	     17.01938524	     38.84641700	    -42.87001330	    -45.00000000	    -45.00000000	    800.90743803	  -2426.56227982	     19.39361879	   -179.99999979	    345.23760972	   -290.30505303	      5.93190085	    -10.29076711
      1.61000000	    -40.93796976	     -3.52147650	      6.18239194	   -166.17219720	    818.87795322	      6.17843923	      7.84593055	    -45.00000000	     45.00000000	    -45.00000000	    -21.86847098	  -2258.04681946	  -1364.33906343	     33.17935200	     44.18446696	   1091.89476877	     26.55966603	     18.84213538	      7.26107739	     16.65007778	     38.65093135	    -42.30861776	    -45.00000000	    -45.00000000	    801.23919916	  -2426.68285022	     19.75119009	   -179.99999979	    345.45936717	   -290.84381801	      5.68585415	     -9.65908409
      1.62000000	    -40.85106402	     -3.88312199	      6.76066343	   -172.06595316	    819.90218276	      5.90508472	      8.41676860	    -45.00000000	     45.00000000	    -45.00000000	    -23.73976752	  -2258.48421379	  -1364.32416766	     33.15077610	     44.92714715	   1092.21958407	     28.16406620	     18.75832845	      6.89108130	     16.39037146	     38.52850514	    -41.50324981	    -45.00000000	    -45.00000000	    801.06113194	  -2426.94636090	     19.15044413	   -179.99999979	    345.20493317	   -291.46530765	      5.65592992	     -9.54610811
      1.63000000	    -40.83119536	     -3.49988223	      6.51030763	   -177.82134808	    820.81437464	      5.65426910	      8.33232749	    -45.00000000	     45.00000000	    -45.00000000	    -24.26516992	  -2258.76360220	  -1364.47123308	     33.05673234	     45.46576728	   1092.24337181	     29.67817928	     18.75335862	      6.81153779	     16.09131514	     38.40849836	    -40.86067767	    -45.00000000	    -45.00000000	    801.40598996	  -2427.00555648	     19.46175984	   -179.99999979	    345.29433934	   -291.52404401	      5.44167350	     -8.90385047
      1.64000000	    -40.65570157	     -3.79427416	      7.07699584	   -183.40574890	    821.60916796	      5.43107982	      8.72424972	    -45.00000000	     44.68613984	    -45.00000000	    -26.19849496	  -2259.01238802	  -1364.33822989	     33.06400914	     46.28936261	   1092.59665779	     31.62659339	     18.69512048	      6.53241500	     15.93280820	     38.18398285	    -40.10670419	    -45.00000000	    -45.00000000	    801.17950182	  -2427.38493231	     18.94029183	   -179.99999979	    345.25997629	   -291.61837015	      5.42601916	     -8.86506688
      1.65000000	    -40.55485927	     -3.69067281	      7.31658973	   -188.79022751	    822.27969436	      5.23760779	      8.76578661	    -45.00000000	     44.32079710	    -45.00000000	    -27.49102039	  -2259.21310941	  -1364.37472550	     32.98437719	     47.06465312	   1092.83304139	     33.67059366	     18.66825024	      6.37506751	     15.74298106	     38.00252295	    -39.56385563	    -45.00000000	    -45.00000000	    801.25798953	  -2427.63631795	     18.84881834	   -179.99999979	    345.40215628	   -291.27435135	      5.31780254	     -8.51110344
      1.66000000	    -40.40333382	     -3.85280076	      7.81551290	   -193.94779846	    822.81903619	      5.07719914	      9.10120836	    -45.00000000	     43.76901111	    -45.00000000	    -29.58057833	  -2259.30605748	  -1364.31399708	     33.04178020	     47.65657347	   1093.11339909	     36.26212681	     18.51756851	      6.04914882	     15.52201203	     38.04886496	    -38.91261922	    -45.00000000	    -45.00000000	    801.18864366	  -2427.93069271	     18.52865628	   -179.99999979	    345.52279604	   -290.55838520	      5.26014743	     -8.23348959
      1.67000000	    -40.26640167	     -3.87796145	      8.14117371	   -198.85240863	    823.22054712	      4.95311863	      9.17182398	    -45.00000000	     43.34091111	    -45.00000000	    -31.08678619	  -2259.43815966	  -1364.35726503	     33.02782961	     48.32378301	   1093.40611880	     38.89492059	     18.44501074	      5.86078908	     15.36512194	     37.93911522	    -38.36309178	    -45.00000000	    -45.00000000	    801.23840165	  -2428.25305771	     18.37010770	   -179.99999979	    345.80252442	   -289.43250535	      5.23270038	     -7.96132976
      1.68000000	    -40.18326462	     -3.66394300	      8.04455615	   -203.48159999	    823.47843826	      4.87018263	      8.87353198	    -45.00000000	     43.05655194	    -45.00000000	    -31.42463498	  -2259.49938878	  -1364.61298395	     32.89949925	     49.37631248	   1093.32930387	     40.99348291	     18.45661464	      5.90012531	     15.09167895	     37.74943804	    -37.69753263	    -45.00000000	    -45.00000000	    801.41669733	  -2428.41475198	     18.65074742	   -179.99999979	    346.31714181	   -288.12303830	      5.17174199	     -7.59900525
      1.69000000	    -39.99322468	     -4.16130269	      9.14462045	   -207.82076959	    823.59628070	      4.82794385	      9.56189645	    -45.00000000	     42.29137621	    -45.00000000	    -37.11566941	  -2259.31189538	  -1364.04552225	     33.49264572	     43.84196872	   1094.80291165	     55.51696249	     18.86661933	      5.54118779	     15.11892964	     37.76915144	    -37.41102458	    -45.00000000	    -45.00000000	    801.35242358	  -2428.99501357	     17.91891169	   -179.99999979	    347.76562342	   -276.03389451	      6.57555167	     -8.26904086
      1.70000000	    -39.79553049	     -4.30790853	      9.59789419	   -211.86266416	    823.57471595	      4.82478116	      9.48599096	    -45.00000000	     42.02282017	    -45.00000000	    -36.70420833	  -2259.70518948	  -1364.34772617	     33.17331748	     49.49182260	   1095.34191975	     57.74622058	     17.93212214	      4.81527952	     14.99642773	     37.67168737	    -36.94689047	    -45.00000000	    -45.00000000	    801.57409953	  -2429.50529388	     17.98541728	   -179.99999979	    348.32213711	   -273.67427468	      6.61772899	     -8.06876412
      1.71000000	    -39.66048471	     -4.56872629	     10.20870040	   -215.59302906	    823.42889250	      4.85354439	      9.61814937	    -45.00000000	     41.58851103	    -45.00000000	    -38.37236118	  -2259.81204322	  -1364.44462278	     33.15285895	     51.40564868	   1095.83213077	     60.72748475	     17.44279553	      4.52393241	     14.87915836	     37.76586647	    -36.59525221	    -45.00000000	    -45.00000000	    801.66814052	  -2429.91297559	     17.68497123	   -179.99999979	    349.01559736	   -269.78073516	      6.96104912	     -8.06623504
